HIERARCHY
ROOT Hips
{
	OFFSET 0.000000 0.000000 0.000000 
	CHANNELS 6 Xposition Yposition Zposition Zrotation Yrotation Xrotation
	JOINT LeftUpLeg
	{
		OFFSET 1.363060 -1.794630 0.839290 
		CHANNELS 3 Zrotation Yrotation Xrotation
		JOINT LeftLeg
		{
			OFFSET 2.448110 -6.726130 0.000000 
			CHANNELS 3 Zrotation Yrotation Xrotation
			JOINT LeftFoot
			{
				OFFSET 2.562200 -7.039590 0.000000 
				CHANNELS 3 Zrotation Yrotation Xrotation
				JOINT LeftToeBase
				{
					OFFSET 0.157640 -0.433110 2.322550 
					CHANNELS 3 Zrotation Yrotation Xrotation
					End Site
					{
						OFFSET 0.000000 0.000000 0.000000 
					}
				}
			}
		}
	}
	JOINT RightUpLeg
	{
		OFFSET -1.305520 -1.794630 0.839290 
		CHANNELS 3 Zrotation Yrotation Xrotation
		JOINT RightLeg
		{
			OFFSET -2.542530 -6.985550 0.000000 
			CHANNELS 3 Zrotation Yrotation Xrotation
			JOINT RightFoot
			{
				OFFSET -2.568260 -7.056230 0.000000 
				CHANNELS 3 Zrotation Yrotation Xrotation
				JOINT RightToeBase
				{
					OFFSET -0.164730 -0.452590 2.363150 
					CHANNELS 3 Zrotation Yrotation Xrotation
					End Site
					{
						OFFSET 0.000000 0.000000 0.000000 
					}
				}
			}
		}
	}
	JOINT Spine
	{
		OFFSET 0.028270 2.035590 -0.193380 
		CHANNELS 3 Zrotation Yrotation Xrotation
		JOINT Spine1
		{
			OFFSET 0.056720 2.048850 -0.042750 
			CHANNELS 3 Zrotation Yrotation Xrotation
			JOINT Neck1
			{
				OFFSET -0.054170 1.746240 0.172020 
				CHANNELS 3 Zrotation Yrotation Xrotation
				JOINT Head
				{
					OFFSET 0.104070 1.761360 -0.123970 
					CHANNELS 3 Zrotation Yrotation Xrotation
					End Site
					{
						OFFSET 0.000000 0.000000 0.000000 
					}
				}
			}
			JOINT LeftArm
			{
				OFFSET 3.362410 1.200890 -0.311210 
				CHANNELS 3 Zrotation Yrotation Xrotation
				JOINT LeftForeArm
				{
					OFFSET 4.983000 -0.000000 -0.000000 
					CHANNELS 3 Zrotation Yrotation Xrotation
					JOINT LeftHand
					{
						OFFSET 3.483560 -0.000000 -0.000000 
						CHANNELS 3 Zrotation Yrotation Xrotation
						JOINT LeftHandIndex1
						{
							OFFSET 0.715260 -0.000000 -0.000000 
							CHANNELS 3 Zrotation Yrotation Xrotation
							End Site
							{
								OFFSET 0.000000 0.000000 0.000000 
							}
						}
					}
				}
			}
			JOINT RightArm
			{
				OFFSET -3.136600 1.374050 -0.404650 
				CHANNELS 3 Zrotation Yrotation Xrotation
				JOINT RightForeArm
				{
					OFFSET -5.241900 -0.000000 -0.000000 
					CHANNELS 3 Zrotation Yrotation Xrotation
					JOINT RightHand
					{
						OFFSET -3.444170 -0.000000 -0.000000 
						CHANNELS 3 Zrotation Yrotation Xrotation
						JOINT RightHandIndex1
						{
							OFFSET -0.622530 -0.000000 -0.000000 
							CHANNELS 3 Zrotation Yrotation Xrotation
							End Site
							{
								OFFSET 0.000000 0.000000 0.000000 
							}
						}
					}
				}
			}
		}
	}
}
MOTION
Frames: 7
Frame Time: 0.041667
1.177975 14.224569 17.128377 -74.782656 -80.313811 60.358217 -45.017349 -3.487078 13.746221 17.885056 14.846325 72.573578 -10.582825 -22.498314 -21.655892 0.540000 4.708300 13.078500 69.968028 12.216295 -1.209674 -13.607771 -10.377169 49.231561 1.814735 15.771056 -46.296461 -1.171300 -6.869600 19.329600 30.975074 -12.915473 53.695354 -7.998996 -1.421990 -20.538795 6.041094 -5.854281 56.485452 3.146700 -3.523800 15.689100 -102.969624 5.677154 17.849151 34.891087 -48.280727 -6.135231 3.290682 8.700365 0.230260 -7.125000 0.000000 0.000000 96.790091 -1.487891 11.831250 -37.505551 49.530352 -7.820088 -3.700518 -1.434789 -12.868812 7.125000 0.000000 0.000000 
1.094427 14.226991 17.124019 -74.594676 -80.111381 60.141188 -44.950379 -4.612396 12.087787 18.068299 14.949017 74.339626 -10.524662 -22.615039 -22.794591 0.391300 4.016600 11.123500 69.991157 11.241771 -0.440250 -13.500036 -10.420574 48.888996 1.654738 15.673260 -46.690376 -1.122300 -6.729400 18.916100 32.009342 -13.168196 53.015756 -8.010740 -1.448020 -20.399459 5.860780 -5.693146 56.559618 3.156200 -3.529000 15.699600 -103.132654 5.759364 18.217021 35.076395 -48.610609 -6.300851 3.521635 9.190737 -0.549747 -7.125000 0.000000 0.000000 96.475228 -1.454084 11.958880 -37.588425 49.534022 -7.831188 -3.656531 -1.476242 -12.797210 7.125000 0.000000 0.000000 
1.010073 14.231430 17.117319 -74.323863 -80.047945 59.694413 -44.906388 -5.725229 10.549632 18.228810 15.036828 75.957738 -10.424713 -22.699283 -23.963939 0.280200 3.404600 9.407300 69.907132 9.809635 0.434387 -13.384853 -10.444631 48.422405 1.486138 15.571529 -47.081659 -0.887500 -6.005000 16.799000 32.121689 -13.202678 52.996012 -8.013566 -1.474276 -20.324873 5.671869 -5.711676 56.399222 3.056800 -3.566900 15.646900 -103.063011 5.714242 18.501094 35.340240 -48.896132 -6.388665 3.268593 9.308619 -0.863665 -7.125000 0.000000 0.000000 96.439738 -1.254122 11.966522 -37.469655 49.476823 -7.816088 -3.786117 -1.450060 -12.671524 7.125000 0.000000 0.000000 
0.927414 14.237565 17.112072 -73.583967 -80.355287 58.592407 -45.138694 -6.831533 9.084669 18.363083 15.152045 77.442721 -9.896634 -22.201705 -25.479933 0.193300 2.831300 7.809500 69.656857 8.322003 1.535327 -13.291658 -10.431881 47.874427 1.360028 15.488135 -47.381429 -0.638700 -5.113200 14.231600 31.074080 -12.943397 53.760039 -7.887948 -1.452433 -20.476577 5.683031 -5.840667 56.263630 2.968200 -3.578700 15.609700 -102.851556 5.586164 18.765434 35.592162 -49.149793 -6.461336 3.032211 9.177002 -1.189878 -7.125000 0.000000 0.000000 96.543633 -1.077923 11.910687 -37.407910 49.525959 -7.833621 -3.862134 -1.461132 -12.680565 7.125000 0.000000 0.000000 
0.843302 14.238130 17.106663 -74.751913 -80.039626 59.412211 -44.876253 -7.848664 7.681851 18.524204 15.223795 78.882579 -9.234288 -21.462021 -27.145100 0.122600 2.256900 6.216100 69.660793 6.921667 2.596526 -13.105436 -10.476986 47.285388 1.291707 15.560571 -47.555779 -0.579800 -4.875700 13.554500 31.259133 -12.958793 53.701843 -8.129995 -1.517290 -20.406244 5.762748 -5.856267 56.204204 3.005000 -3.571500 15.620100 -102.752387 5.581822 19.121028 35.796858 -49.473221 -6.640876 3.404979 9.291109 -1.801414 -7.125000 0.000000 0.000000 96.436391 -1.040406 11.860467 -37.506020 49.583946 -7.848163 -3.757664 -1.514210 -12.822055 7.125000 0.000000 0.000000 
0.761853 14.233448 17.107148 -75.822039 -79.365544 60.630090 -44.520992 -9.266557 5.780590 18.702052 15.267418 80.314980 -8.658675 -20.790940 -28.785826 0.074700 1.762700 4.850300 69.842727 5.887349 3.106160 -12.894419 -10.514429 46.747741 1.390554 15.921966 -47.508579 -0.677600 -5.263400 14.661300 32.630614 -13.270353 52.785871 -8.652634 -1.675689 -20.169004 5.552329 -5.708586 56.251320 3.016100 -3.580900 15.634400 -102.776343 5.762763 19.309228 36.087164 -49.830912 -6.811900 3.527390 9.428482 -2.057288 -7.125000 0.000000 0.000000 96.262207 -0.954817 11.740474 -37.403094 49.376275 -7.732089 -3.732134 -1.356177 -12.643856 7.125000 0.000000 0.000000 
0.685652 14.233771 17.118287 -73.880074 -79.140859 59.108101 -44.651569 -11.274290 3.393600 18.873024 15.345650 81.680010 -8.021725 -19.995420 -30.383055 0.038300 1.263900 3.475100 69.750526 4.839426 3.333765 -12.748824 -10.490663 46.280445 1.502316 16.299169 -47.582947 -0.667800 -5.226100 14.554500 33.375162 -13.467146 52.236839 -9.119199 -1.849622 -20.098975 5.644767 -5.892314 56.240843 3.017900 -3.656900 15.610000 -102.644012 5.915890 19.786214 36.422786 -50.163201 -6.952074 3.365546 9.398174 -2.393520 -7.125000 0.000000 0.000000 96.177037 -0.877561 11.507712 -37.280931 49.191356 -7.638083 -3.800408 -1.194867 -12.639402 7.125000 0.000000 0.000000 
